<svg xmlns="http://www.w3.org/2000/svg" xmlns:xlink="http://www.w3.org/1999/xlink" width="37" height="37" viewBox="0 0 37 37"><defs><style>.a{fill:url(#a);}.b{fill:#fff;}</style><linearGradient id="a" x1="0.5" x2="0.5" y2="1" gradientUnits="objectBoundingBox"><stop offset="0" stop-color="#f63f53"/><stop offset="0.761" stop-color="#d40f9e"/><stop offset="1" stop-color="#c900b5"/></linearGradient></defs><g transform="translate(-931.791 -326.791)"><circle class="a" cx="18.5" cy="18.5" r="18.5" transform="translate(931.791 326.791)"/><path class="b" d="M8.867,6.561a4.539,4.539,0,1,0,3.217,1.33,4.547,4.547,0,0,0-3.217-1.33Zm0,7.5a2.956,2.956,0,1,1,2.956-2.956,2.956,2.956,0,0,1-2.956,2.956Zm5.793-7.688a1.058,1.058,0,1,1-.31-.751A1.06,1.06,0,0,1,14.661,6.375Zm3.01,1.078a5.248,5.248,0,0,0-1.432-3.714,5.283,5.283,0,0,0-3.714-1.432c-1.463-.083-5.853-.083-7.316,0A5.275,5.275,0,0,0,1.494,3.735,5.265,5.265,0,0,0,.061,7.449c-.083,1.463-.083,5.853,0,7.316A5.248,5.248,0,0,0,1.494,18.48a5.29,5.29,0,0,0,3.714,1.432c1.463.083,5.853.083,7.316,0a5.248,5.248,0,0,0,3.714-1.432,5.283,5.283,0,0,0,1.432-3.714c.083-1.463.083-5.849,0-7.313Zm-1.89,8.881a2.993,2.993,0,0,1-1.688,1.688c-1.167.463-3.94.356-5.227.356s-4.064.1-5.227-.356A2.993,2.993,0,0,1,1.95,16.335c-.463-1.167-.356-3.94-.356-5.227s-.1-4.064.356-5.227A2.993,2.993,0,0,1,3.638,4.192c1.167-.463,3.94-.356,5.227-.356s4.064-.1,5.227.356A2.993,2.993,0,0,1,15.781,5.88c.463,1.167.356,3.94.356,5.227S16.243,15.171,15.781,16.335Z" transform="translate(941.571 334.327)"/></g></svg>