
<svg xmlns="http://www.w3.org/2000/svg" width="1080.78" height="289.614" viewBox="0 0 1080.78 289.614">
<defs>
<style>
.a{fill:#ff390c;}
.b{fill:#ff8000;}
.c{fill:#00cc60;}
.d{fill:#0682ff;}
.e{fill:#e103c3;}
.f{fill:#fff;font-size:18px;font-family:arial;font-weight:600;}
</style>
</defs><g transform="translate(-118 -3622.726)"><rect class="a" width="45.447" height="2.543" transform="translate(300.476 3766.261)"/><path class="a" d="M183.907,151.865H21.858V102.228H183.907l25.731,24.819Z" transform="translate(99.143 3640.486)"/><rect class="b" width="45.447" height="2.543" transform="translate(522.847 3766.261)"/><path class="b" d="M249.7,151.865H87.653V102.228H249.7l25.731,24.819Z" transform="translate(255.894 3640.486)"/><rect class="c" width="45.447" height="2.543" transform="translate(745.217 3766.261)"/><path class="c" d="M315.5,151.865H153.448V102.228H315.5l25.731,24.819Z" transform="translate(412.552 3640.486)"/><rect class="d" width="45.447" height="2.543" transform="translate(967.588 3766.261)"/><path class="e" d="M381.292,151.865H219.243V102.228H381.292l25.731,24.819Z" transform="translate(568.757 3640.486)"/><path class="d" d="M447.087,151.865H285.038V102.228H447.087l25.731,24.819Z" transform="translate(725.962 3640.486)"/><g transform="translate(118 3622.726)"><g transform="translate(2.33 3.016)"><rect class="a" width="1.69" height="100.062"/></g><g transform="translate(0 99.743)"><path class="a" d="M27.269,99.415a3.175,3.175,0,1,1-3.177-3.177A3.178,3.178,0,0,1,27.269,99.415Z" transform="translate(-20.918 -96.238)"/></g><path class="a" d="M27.269,69.9a3.175,3.175,0,1,0-3.177,3.177A3.178,3.178,0,0,0,27.269,69.9Z" transform="translate(-20.918 -66.726)"/></g><g transform="translate(562.738 3622.726)"><g transform="translate(2.333 3.016)"><rect class="c" width="1.69" height="100.062"/></g><g transform="translate(0 99.743)"><path class="c" d="M158.861,99.415a3.177,3.177,0,1,1-3.177-3.177A3.178,3.178,0,0,1,158.861,99.415Z" transform="translate(-152.507 -96.238)"/></g><path class="c" d="M158.861,69.9a3.177,3.177,0,1,0-3.177,3.177A3.178,3.178,0,0,0,158.861,69.9Z" transform="translate(-152.507 -66.726)"/></g><g transform="translate(1007.479 3622.726)"><g transform="translate(2.333 3.016)"><rect class="d" width="1.69" height="100.062"/></g><g transform="translate(0 99.743)"><path class="d" d="M290.451,99.415a3.177,3.177,0,1,1-3.177-3.177A3.178,3.178,0,0,1,290.451,99.415Z" transform="translate(-284.097 -96.238)"/></g><path class="d" d="M290.451,69.9a3.177,3.177,0,1,0-3.177,3.177A3.178,3.178,0,0,0,290.451,69.9Z" transform="translate(-284.097 -66.726)"/></g><g transform="translate(340.368 3806.243)"><g transform="translate(2.333 3.018)"><rect class="b" width="1.69" height="100.062"/></g><g transform="translate(0 99.743)"><path class="b" d="M93.066,153.714a3.177,3.177,0,1,1-3.177-3.177A3.178,3.178,0,0,1,93.066,153.714Z" transform="translate(-86.712 -150.537)"/></g><path class="b" d="M93.066,124.2a3.177,3.177,0,1,0-3.177,3.177A3.178,3.178,0,0,0,93.066,124.2Z" transform="translate(-86.712 -121.025)"/></g><g transform="translate(785.108 3806.243)"><g transform="translate(2.333 3.018)"><rect class="e" width="1.69" height="100.062"/></g><g transform="translate(0 99.743)"><path class="e" d="M224.656,153.714a3.177,3.177,0,1,1-3.177-3.177A3.178,3.178,0,0,1,224.656,153.714Z" transform="translate(-218.302 -150.537)"/></g><path class="e" d="M224.656,124.2a3.177,3.177,0,1,0-3.177,3.177A3.178,3.178,0,0,0,224.656,124.2Z" transform="translate(-218.302 -121.025)"/></g><text class="f" transform="translate(162 3773)"><tspan x="0" y="0">In progress</tspan></text><text class="f" transform="translate(384 3773)"><tspan x="0" y="0">In progress</tspan></text><text class="f" transform="translate(618 3773)"><tspan x="0" y="0">Q1, 2022</tspan></text><text class="f" transform="translate(840 3773)"><tspan x="0" y="0">Q1, 2022</tspan></text><text class="f" transform="translate(1062 3773)"><tspan x="0" y="0">Q2, 2022</tspan></text><text class="f" transform="translate(149 3640)"><tspan x="0" y="0">VibraGoons NFTs</tspan></text><text class="f" transform="translate(363 3908)"><tspan x="0" y="0">Marketplace (MVP)</tspan></text><text class="f" transform="translate(581 3640)"><tspan x="0" y="0">Multichain Marketplace</tspan></text><text class="f" transform="translate(808 3890)"><tspan x="0" y="0">Collectible Games </tspan><tspan x="0" y="18">Development</tspan></text><text class="f" transform="translate(1031 3640)"><tspan x="0" y="0">BTP for NFT </tspan><tspan x="0" y="18">(Bridge Protocol)</tspan></text></g></svg>